<mxfile host="app.diagrams.net" modified="2021-06-10T08:46:21.713Z" agent="5.0 (Windows NT 10.0; WOW64) AppleWebKit/537.36 (KHTML, like Gecko) Chrome/72.0.3626.121 Safari/537.36" etag="5eqtc0HURdXKEI8mklar" version="14.7.7" type="github">
  <diagram id="rknTWuLCvh9Vs-XFkleX" name="Page-1">
    <mxGraphModel dx="1422" dy="794" grid="1" gridSize="10" guides="1" tooltips="1" connect="1" arrows="1" fold="1" page="1" pageScale="1" pageWidth="827" pageHeight="1169" math="0" shadow="0">
      <root>
        <mxCell id="0" />
        <mxCell id="1" parent="0" />
        <mxCell id="4fucsDYpJoGsG2DXEo9O-1" value="" style="shape=umlLifeline;participant=umlActor;perimeter=lifelinePerimeter;whiteSpace=wrap;html=1;container=1;collapsible=0;recursiveResize=0;verticalAlign=top;spacingTop=36;outlineConnect=0;" vertex="1" parent="1">
          <mxGeometry x="90" y="70" width="20" height="410" as="geometry" />
        </mxCell>
        <mxCell id="4fucsDYpJoGsG2DXEo9O-2" value="用户" style="text;html=1;align=center;verticalAlign=middle;resizable=0;points=[];autosize=1;strokeColor=none;" vertex="1" parent="1">
          <mxGeometry x="80" y="40" width="40" height="20" as="geometry" />
        </mxCell>
        <mxCell id="4fucsDYpJoGsG2DXEo9O-3" value="" style="html=1;points=[];perimeter=orthogonalPerimeter;" vertex="1" parent="1">
          <mxGeometry x="95" y="130" width="10" height="370" as="geometry" />
        </mxCell>
        <mxCell id="4fucsDYpJoGsG2DXEo9O-4" value="oauth-provider" style="shape=umlLifeline;perimeter=lifelinePerimeter;whiteSpace=wrap;html=1;container=1;collapsible=0;recursiveResize=0;outlineConnect=0;" vertex="1" parent="1">
          <mxGeometry x="260" y="70" width="100" height="400" as="geometry" />
        </mxCell>
        <mxCell id="4fucsDYpJoGsG2DXEo9O-5" value="" style="html=1;points=[];perimeter=orthogonalPerimeter;" vertex="1" parent="4fucsDYpJoGsG2DXEo9O-4">
          <mxGeometry x="45" y="150" width="10" height="90" as="geometry" />
        </mxCell>
        <mxCell id="4fucsDYpJoGsG2DXEo9O-6" value="&amp;nbsp; &amp;nbsp;2&amp;nbsp; 验证用户名、密码、&lt;br&gt;验证码信息" style="edgeStyle=orthogonalEdgeStyle;html=1;align=left;spacingLeft=2;endArrow=block;rounded=0;entryX=1;entryY=0;" edge="1" parent="4fucsDYpJoGsG2DXEo9O-4" target="4fucsDYpJoGsG2DXEo9O-5">
          <mxGeometry relative="1" as="geometry">
            <mxPoint x="50" y="110" as="sourcePoint" />
            <Array as="points">
              <mxPoint x="80" y="110" />
            </Array>
          </mxGeometry>
        </mxCell>
        <mxCell id="4fucsDYpJoGsG2DXEo9O-7" value="" style="html=1;points=[];perimeter=orthogonalPerimeter;" vertex="1" parent="1">
          <mxGeometry x="305" y="130" width="10" height="50" as="geometry" />
        </mxCell>
        <mxCell id="4fucsDYpJoGsG2DXEo9O-8" value="" style="endArrow=block;endFill=1;html=1;edgeStyle=orthogonalEdgeStyle;align=left;verticalAlign=top;" edge="1" parent="1">
          <mxGeometry x="-1" relative="1" as="geometry">
            <mxPoint x="105" y="150" as="sourcePoint" />
            <mxPoint x="300" y="150" as="targetPoint" />
          </mxGeometry>
        </mxCell>
        <mxCell id="4fucsDYpJoGsG2DXEo9O-9" value="1&amp;nbsp; 登录请求&lt;br&gt;（用户名、密码、验证码等信息）" style="edgeLabel;resizable=0;html=1;align=left;verticalAlign=bottom;" connectable="0" vertex="1" parent="4fucsDYpJoGsG2DXEo9O-8">
          <mxGeometry x="-1" relative="1" as="geometry" />
        </mxCell>
        <mxCell id="4fucsDYpJoGsG2DXEo9O-10" value="3&amp;nbsp; &amp;nbsp;验证失败" style="html=1;verticalAlign=bottom;endArrow=open;dashed=1;endSize=8;" edge="1" parent="1">
          <mxGeometry relative="1" as="geometry">
            <mxPoint x="300" y="220" as="sourcePoint" />
            <mxPoint x="110" y="220" as="targetPoint" />
          </mxGeometry>
        </mxCell>
        <mxCell id="4fucsDYpJoGsG2DXEo9O-11" value="system" style="shape=umlLifeline;perimeter=lifelinePerimeter;whiteSpace=wrap;html=1;container=1;collapsible=0;recursiveResize=0;outlineConnect=0;" vertex="1" parent="1">
          <mxGeometry x="450" y="70" width="100" height="390" as="geometry" />
        </mxCell>
        <mxCell id="4fucsDYpJoGsG2DXEo9O-12" value="" style="html=1;points=[];perimeter=orthogonalPerimeter;" vertex="1" parent="1">
          <mxGeometry x="495" y="130" width="10" height="370" as="geometry" />
        </mxCell>
        <mxCell id="4fucsDYpJoGsG2DXEo9O-13" value="" style="endArrow=block;endFill=1;html=1;edgeStyle=orthogonalEdgeStyle;align=left;verticalAlign=top;" edge="1" parent="1">
          <mxGeometry x="-0.3714" y="-60" relative="1" as="geometry">
            <mxPoint x="315" y="240" as="sourcePoint" />
            <mxPoint x="490" y="240" as="targetPoint" />
            <mxPoint as="offset" />
          </mxGeometry>
        </mxCell>
        <mxCell id="4fucsDYpJoGsG2DXEo9O-14" value="&amp;nbsp; 4&amp;nbsp; &amp;nbsp;发送获取双因子配置请求" style="edgeLabel;resizable=0;html=1;align=left;verticalAlign=bottom;" connectable="0" vertex="1" parent="4fucsDYpJoGsG2DXEo9O-13">
          <mxGeometry x="-1" relative="1" as="geometry" />
        </mxCell>
        <mxCell id="4fucsDYpJoGsG2DXEo9O-15" value="5&amp;nbsp; 返回配置信息" style="html=1;verticalAlign=bottom;endArrow=open;dashed=1;endSize=8;" edge="1" parent="1">
          <mxGeometry relative="1" as="geometry">
            <mxPoint x="495" y="272" as="sourcePoint" />
            <mxPoint x="320" y="272" as="targetPoint" />
          </mxGeometry>
        </mxCell>
        <mxCell id="4fucsDYpJoGsG2DXEo9O-16" value="message-cloud" style="shape=umlLifeline;perimeter=lifelinePerimeter;whiteSpace=wrap;html=1;container=1;collapsible=0;recursiveResize=0;outlineConnect=0;" vertex="1" parent="1">
          <mxGeometry x="595" y="70" width="100" height="410" as="geometry" />
        </mxCell>
        <mxCell id="4fucsDYpJoGsG2DXEo9O-17" value="" style="html=1;points=[];perimeter=orthogonalPerimeter;" vertex="1" parent="1">
          <mxGeometry x="640" y="360" width="10" height="80" as="geometry" />
        </mxCell>
        <mxCell id="4fucsDYpJoGsG2DXEo9O-18" value="" style="html=1;verticalAlign=bottom;endArrow=block;" edge="1" parent="1">
          <mxGeometry width="80" relative="1" as="geometry">
            <mxPoint x="315" y="359.6700000000001" as="sourcePoint" />
            <mxPoint x="490" y="359.5" as="targetPoint" />
          </mxGeometry>
        </mxCell>
        <mxCell id="4fucsDYpJoGsG2DXEo9O-19" value="&amp;nbsp; &amp;nbsp; &amp;nbsp; &amp;nbsp; &amp;nbsp; &amp;nbsp; &amp;nbsp; 7&amp;nbsp; dubbo调用发送动态码接口" style="text;html=1;align=center;verticalAlign=middle;resizable=0;points=[];autosize=1;strokeColor=none;" vertex="1" parent="1">
          <mxGeometry x="275" y="335" width="220" height="20" as="geometry" />
        </mxCell>
        <mxCell id="4fucsDYpJoGsG2DXEo9O-20" value="6&amp;nbsp; &amp;nbsp; 验证码设置缓存" style="edgeStyle=orthogonalEdgeStyle;html=1;align=left;spacingLeft=2;endArrow=block;rounded=0;entryX=1;entryY=0;exitX=1.05;exitY=0.994;exitDx=0;exitDy=0;exitPerimeter=0;" edge="1" parent="1" source="4fucsDYpJoGsG2DXEo9O-5">
          <mxGeometry relative="1" as="geometry">
            <mxPoint x="310" y="300" as="sourcePoint" />
            <Array as="points">
              <mxPoint x="340" y="310" />
              <mxPoint x="340" y="335" />
            </Array>
            <mxPoint x="315" y="335.0000000000002" as="targetPoint" />
          </mxGeometry>
        </mxCell>
        <mxCell id="4fucsDYpJoGsG2DXEo9O-21" value="8&amp;nbsp; 发送mq" style="html=1;verticalAlign=bottom;endArrow=block;entryX=-0.4;entryY=0.244;entryDx=0;entryDy=0;entryPerimeter=0;dashed=1;" edge="1" parent="1" target="4fucsDYpJoGsG2DXEo9O-17">
          <mxGeometry width="80" relative="1" as="geometry">
            <mxPoint x="505" y="380" as="sourcePoint" />
            <mxPoint x="630" y="380" as="targetPoint" />
          </mxGeometry>
        </mxCell>
        <mxCell id="4fucsDYpJoGsG2DXEo9O-22" value="message-sender" style="shape=umlLifeline;perimeter=lifelinePerimeter;whiteSpace=wrap;html=1;container=1;collapsible=0;recursiveResize=0;outlineConnect=0;" vertex="1" parent="1">
          <mxGeometry x="760" y="70" width="100" height="420" as="geometry" />
        </mxCell>
        <mxCell id="4fucsDYpJoGsG2DXEo9O-23" value="" style="html=1;points=[];perimeter=orthogonalPerimeter;" vertex="1" parent="1">
          <mxGeometry x="805" y="360" width="10" height="80" as="geometry" />
        </mxCell>
        <mxCell id="4fucsDYpJoGsG2DXEo9O-24" value="9&amp;nbsp; &amp;nbsp;http调用短息发送接口" style="html=1;verticalAlign=bottom;endArrow=block;" edge="1" parent="1">
          <mxGeometry width="80" relative="1" as="geometry">
            <mxPoint x="650" y="390" as="sourcePoint" />
            <mxPoint x="800" y="390" as="targetPoint" />
          </mxGeometry>
        </mxCell>
        <mxCell id="4fucsDYpJoGsG2DXEo9O-25" value="return" style="html=1;verticalAlign=bottom;endArrow=open;dashed=1;endSize=8;" edge="1" parent="1">
          <mxGeometry relative="1" as="geometry">
            <mxPoint x="489" y="390" as="sourcePoint" />
            <mxPoint x="315" y="390.5" as="targetPoint" />
          </mxGeometry>
        </mxCell>
        <mxCell id="4fucsDYpJoGsG2DXEo9O-26" value="抛出异常&amp;nbsp; 未绑定手机号" style="html=1;verticalAlign=bottom;endArrow=open;dashed=1;endSize=8;" edge="1" parent="1">
          <mxGeometry relative="1" as="geometry">
            <mxPoint x="305" y="290" as="sourcePoint" />
            <mxPoint x="110" y="290" as="targetPoint" />
          </mxGeometry>
        </mxCell>
        <mxCell id="4fucsDYpJoGsG2DXEo9O-27" value="return" style="html=1;verticalAlign=bottom;endArrow=open;dashed=1;endSize=8;" edge="1" parent="1" target="4fucsDYpJoGsG2DXEo9O-16">
          <mxGeometry relative="1" as="geometry">
            <mxPoint x="795" y="410" as="sourcePoint" />
            <mxPoint x="715" y="410" as="targetPoint" />
          </mxGeometry>
        </mxCell>
        <mxCell id="4fucsDYpJoGsG2DXEo9O-28" value="10&amp;nbsp; &amp;nbsp;返回手机号&amp;nbsp; 脱敏信息" style="html=1;verticalAlign=bottom;endArrow=open;dashed=1;endSize=8;exitX=0;exitY=0.35;exitDx=0;exitDy=0;exitPerimeter=0;" edge="1" parent="1">
          <mxGeometry relative="1" as="geometry">
            <mxPoint x="305" y="401.5000000000002" as="sourcePoint" />
            <mxPoint x="105" y="399.5" as="targetPoint" />
            <Array as="points">
              <mxPoint x="190" y="400" />
            </Array>
          </mxGeometry>
        </mxCell>
      </root>
    </mxGraphModel>
  </diagram>
</mxfile>
